# xmcd CD database file
#
# Track frame offsets:
#	150
#	15224
#	30243
#	43645
#	57666
#	71220
#	85174
#	100872
#	118025
#	130815
#	145848
#	158776
#	175388
#	188675
#	201482
#	216850
#	230136
#	246428
#	259864
#	273523
#
# Disc length: 3822 seconds
#
# Revision: 0
# Processed by: cddbd v1.5.2PL0 Copyright (c) Steve Scherf et al.
# Submitted via: CDex 1.51
#
DISCID=280eec14
DTITLE=Diversos - Arrasta Pé
DYEAR=1900
DGENRE=Forró
TTITLE0=simpatia de são João - Mastruz com Leite
TTITLE1=pra esse amor abençoar - Mastruz com Leite
TTITLE2=forró folia - Mastruz com Leite
TTITLE3=amor de São João - Mastruz com Leite
TTITLE4=arrasta, arrasta - Janaína dos teclados
TTITLE5=festa de arrasta pé - Calango Aceso
TTITLE6=brincando de anel - Cavalo de Pau
TTITLE7=Você de lá e eu de cá - Banda Aquárius
TTITLE8=costumes do nordeste - Catuaba com Amendoim
TTITLE9=rapaz velho - Rita de Cássia e Redondo
TTITLE10=não sai não sai - Petrúcio Amorim
TTITLE11=noite de são joão - Black Banda
TTITLE12=menina teimosa - Cachorra da Moléstia
TTITLE13=são joão diferente - Rabo de Saia
TTITLE14=solte o coração - Baláio de Gatos
TTITLE15=fruta madura - Mel com Terra
TTITLE16=zero boi - Amazan
TTITLE17=pula pula fogueira - Raízes do Forró
TTITLE18=falta um boi vaqueiro - Tom Oliveira
TTITLE19=o que é o que é - Dejinha de monteiro
EXTD=
EXTT0=
EXTT1=
EXTT2=
EXTT3=
EXTT4=
EXTT5=
EXTT6=
EXTT7=
EXTT8=
EXTT9=
EXTT10=
EXTT11=
EXTT12=
EXTT13=
EXTT14=
EXTT15=
EXTT16=
EXTT17=
EXTT18=
EXTT19=
PLAYORDER=
